<svg width="393" height="61" viewBox="0 0 393 61" fill="none" xmlns="http://www.w3.org/2000/svg">
<path d="M62.343 0H0V60.9933H62.343V0Z" fill="#500000"/>
<path d="M49.1679 24.2756L49.0466 24.5109L45.6905 31.2951L42.3205 24.5076L42.2028 24.2756H37.0387V27.4155H38.2267V37.1312H36.9729V40.2711H42.8504V37.1312H41.5551V30.2361L45.3095 37.7497L45.6905 38.5162L46.0784 37.7497L49.871 30.2193V37.1312H48.6137V40.2711H54.4913V37.1312H53.1994V27.4155H54.4913V24.2756H49.1679Z" fill="white"/>
<path d="M24.8783 37.1211H23.5414L19.1913 27.3718H20.0294V24.2185H13.047V27.3618H14.0099L9.66317 37.111H7.85176V40.2543H14.19V37.111H13.2687L13.9925 35.4872H19.2224L19.9428 37.111H18.9696V40.2543H25.3113V37.111L24.8783 37.1211ZM17.8197 32.3574H15.3953L16.6075 29.631L17.8197 32.3574Z" fill="white"/>
<path d="M12.9951 12.0756V22.1678H20.0606V18.2983H27.5833V42.3924H23.5968V49.2505H38.6319V42.3924H34.6489V18.2983H42.1266V22.1241H49.2337V12.0756H12.9951Z" fill="white"/>
<path d="M35.6914 45.2062L37.1807 43.7169V47.7982L35.6914 46.4165V45.2062Z" fill="#B1B3B6"/>
<path d="M33.2115 43.8245L31.7187 45.2499V15.4576L33.2115 16.8998V43.8245Z" fill="#B1B3B6"/>
<path d="M15.9806 14.9332L14.4497 13.4876H47.0378L45.1121 14.9332H15.9806Z" fill="#B1B3B6"/>
<path d="M47.8275 20.7995L46.3382 19.4178V15.74L47.8275 14.2541V20.7995Z" fill="#B1B3B6"/>
<path d="M64.5597 59.7864C64.5597 59.5464 64.633 59.3117 64.7704 59.1121C64.9078 58.9126 65.103 58.757 65.3315 58.6652C65.56 58.5733 65.8114 58.5493 66.0539 58.5961C66.2964 58.6429 66.5192 58.7585 66.6941 58.9282C66.869 59.098 66.988 59.3142 67.0363 59.5496C67.0845 59.785 67.0598 60.0291 66.9651 60.2508C66.8705 60.4726 66.7102 60.6621 66.5046 60.7955C66.299 60.9288 66.0573 61 65.81 61C65.4784 61 65.1604 60.8721 64.9259 60.6445C64.6914 60.4169 64.5597 60.1083 64.5597 59.7864ZM66.7555 59.7864C66.7434 59.6079 66.6778 59.4368 66.5668 59.294C66.4557 59.1513 66.3042 59.0431 66.1307 58.9828C65.9572 58.9225 65.7694 58.9128 65.5902 58.9547C65.4111 58.9967 65.2485 59.0885 65.1225 59.219C64.9964 59.3494 64.9123 59.5128 64.8806 59.6889C64.8489 59.8651 64.8709 60.0465 64.944 60.2107C65.017 60.3749 65.1379 60.5148 65.2917 60.6132C65.4456 60.7116 65.6257 60.7643 65.81 60.7647C65.939 60.763 66.0663 60.7361 66.1844 60.6856C66.3024 60.6351 66.4088 60.562 66.497 60.4707C66.5853 60.3793 66.6537 60.2717 66.6981 60.1541C66.7425 60.0365 66.7621 59.9115 66.7555 59.7864ZM65.3286 59.0939H65.855C66.2014 59.0939 66.378 59.2082 66.378 59.4973C66.3832 59.5462 66.3773 59.5957 66.3607 59.6421C66.344 59.6886 66.3171 59.731 66.2818 59.7663C66.2464 59.8015 66.2035 59.8288 66.1561 59.8462C66.1087 59.8637 66.0579 59.8708 66.0074 59.8671L66.3884 60.4688H66.1182L65.7476 59.8704H65.5883V60.4587H65.3251L65.3286 59.0939ZM65.5918 59.6822H65.8238C65.9797 59.6822 66.1148 59.662 66.1148 59.4771C66.1148 59.2922 65.9624 59.2888 65.8273 59.2888H65.5918V59.6822Z" fill="#500000"/>
<path d="M89.0943 19.5028H87.9859V10.9989H85.0044V10.0267H92.0629V10.9989H89.0943V19.5028ZM98.7713 19.5028H93.4953V10.0267H98.7713V10.9989H94.5972V14.0647H98.5315V15.024H94.5972V18.5306H98.7713V19.5028ZM107.197 19.5028H105.947L103.386 15.3286L100.787 19.5028H99.614L102.771 14.5638L99.8343 10.0267H101.059L103.425 13.8055L105.804 10.0267H106.971L104.041 14.5444L107.197 19.5028ZM114.489 19.5028L113.323 16.4953H109.524L108.364 19.5028H107.249L110.957 9.98778H111.948L115.63 19.5028H114.489ZM112.992 15.5166L111.884 12.5286C111.858 12.4508 111.815 12.3233 111.754 12.1462C111.698 11.969 111.64 11.7853 111.579 11.5952C111.519 11.4051 111.469 11.2517 111.43 11.135C111.387 11.3122 111.339 11.4894 111.287 11.6665C111.24 11.8394 111.192 12.0014 111.145 12.1526C111.097 12.2996 111.056 12.4249 111.022 12.5286L109.894 15.5166H112.992ZM122.293 16.9815C122.293 17.5432 122.153 18.0228 121.872 18.4204C121.595 18.8136 121.206 19.1139 120.705 19.3213C120.204 19.5287 119.614 19.6324 118.936 19.6324C118.577 19.6324 118.238 19.6152 117.918 19.5806C117.598 19.546 117.304 19.4963 117.037 19.4315C116.769 19.3667 116.533 19.2868 116.33 19.1917V18.1352C116.654 18.2691 117.05 18.3944 117.516 18.5111C117.983 18.6235 118.471 18.6796 118.981 18.6796C119.456 18.6796 119.858 18.617 120.187 18.4917C120.515 18.362 120.764 18.1784 120.932 17.9407C121.105 17.6988 121.191 17.4092 121.191 17.0722C121.191 16.7481 121.12 16.478 120.977 16.262C120.835 16.0416 120.597 15.8428 120.264 15.6657C119.936 15.4842 119.487 15.2919 118.916 15.0888C118.514 14.9462 118.16 14.7907 117.853 14.6221C117.546 14.4493 117.289 14.2548 117.082 14.0388C116.875 13.8227 116.717 13.5721 116.609 13.2869C116.505 13.0017 116.453 12.6755 116.453 12.3082C116.453 11.8026 116.581 11.3705 116.836 11.0119C117.095 10.6489 117.451 10.3724 117.905 10.1822C118.363 9.98778 118.888 9.89055 119.48 9.89055C119.986 9.89055 120.452 9.93808 120.88 10.0331C121.312 10.1282 121.708 10.2557 122.066 10.4156L121.723 11.3619C121.381 11.2193 121.018 11.1005 120.634 11.0054C120.254 10.9103 119.86 10.8628 119.454 10.8628C119.048 10.8628 118.705 10.9233 118.424 11.0443C118.147 11.161 117.935 11.3273 117.788 11.5434C117.642 11.7594 117.568 12.0165 117.568 12.3147C117.568 12.6474 117.637 12.924 117.775 13.1443C117.918 13.3647 118.143 13.5613 118.45 13.7342C118.761 13.9027 119.171 14.0798 119.681 14.2657C120.239 14.4687 120.712 14.6848 121.101 14.9138C121.489 15.1385 121.785 15.4151 121.989 15.7435C122.192 16.0675 122.293 16.4802 122.293 16.9815ZM133.623 19.5028L132.456 16.4953H128.658L127.498 19.5028H126.383L130.091 9.98778H131.082L134.764 19.5028H133.623ZM132.126 15.5166L131.017 12.5286C130.992 12.4508 130.948 12.3233 130.888 12.1462C130.832 11.969 130.773 11.7853 130.713 11.5952C130.652 11.4051 130.603 11.2517 130.564 11.135C130.521 11.3122 130.473 11.4894 130.421 11.6665C130.374 11.8394 130.326 12.0014 130.279 12.1526C130.231 12.2996 130.19 12.4249 130.155 12.5286L129.028 15.5166H132.126ZM138.821 9.87759C139.288 9.87759 139.69 9.95969 140.027 10.1239C140.368 10.2838 140.63 10.5149 140.811 10.8174C140.997 11.1199 141.09 11.485 141.09 11.9128C141.09 12.4746 140.906 12.9499 140.539 13.3388C140.176 13.7277 139.714 14.082 139.152 14.4018L141.783 16.9555C142.021 16.679 142.216 16.3592 142.367 15.9962C142.518 15.629 142.645 15.2314 142.749 14.8036H143.838C143.7 15.374 143.521 15.899 143.3 16.3787C143.084 16.8583 142.812 17.2796 142.483 17.6426L144.383 19.5028H142.924L141.751 18.3556C141.474 18.6105 141.176 18.8352 140.857 19.0296C140.541 19.2198 140.189 19.3689 139.8 19.4769C139.415 19.5806 138.975 19.6324 138.478 19.6324C137.873 19.6324 137.348 19.5331 136.903 19.3343C136.458 19.1355 136.112 18.8438 135.866 18.4593C135.624 18.0747 135.503 17.6037 135.503 17.0463C135.503 16.5882 135.587 16.195 135.756 15.8666C135.924 15.5382 136.164 15.2465 136.475 14.9916C136.786 14.7366 137.158 14.4882 137.59 14.2462C137.387 14.0215 137.194 13.7947 137.013 13.5656C136.831 13.3323 136.685 13.0838 136.572 12.8202C136.46 12.5523 136.404 12.2585 136.404 11.9387C136.404 11.5066 136.501 11.1372 136.695 10.8304C136.894 10.5236 137.173 10.2881 137.531 10.1239C137.894 9.95969 138.324 9.87759 138.821 9.87759ZM138.238 14.9268C137.901 15.1212 137.611 15.3135 137.369 15.5036C137.132 15.6938 136.948 15.9077 136.819 16.1453C136.693 16.383 136.631 16.6703 136.631 17.0074C136.631 17.5129 136.801 17.9191 137.143 18.2259C137.484 18.5284 137.94 18.6796 138.51 18.6796C139.098 18.6796 139.597 18.5824 140.007 18.388C140.422 18.1935 140.774 17.958 141.064 17.6815L138.238 14.9268ZM138.782 10.7656C138.389 10.7656 138.069 10.8693 137.823 11.0767C137.581 11.2798 137.46 11.565 137.46 11.9323C137.46 12.2607 137.549 12.5631 137.726 12.8397C137.903 13.1162 138.156 13.423 138.484 13.7601C139.024 13.4619 139.415 13.1746 139.657 12.898C139.904 12.6172 140.027 12.2888 140.027 11.9128C140.027 11.5715 139.912 11.2949 139.683 11.0832C139.459 10.8714 139.158 10.7656 138.782 10.7656ZM149.918 19.5028L146.735 11.1156H146.684C146.701 11.2927 146.716 11.5088 146.729 11.7637C146.742 12.0187 146.753 12.2974 146.761 12.5999C146.77 12.898 146.774 13.2027 146.774 13.5138V19.5028H145.75V10.0267H147.384L150.385 17.9083H150.43L153.476 10.0267H155.097V19.5028H154.008V13.436C154.008 13.1551 154.012 12.8743 154.021 12.5934C154.029 12.3082 154.04 12.0403 154.053 11.7897C154.066 11.5347 154.079 11.3143 154.092 11.1285H154.04L150.819 19.5028H149.918ZM168.306 10.0267V16.1583C168.306 16.8281 168.17 17.4244 167.898 17.9472C167.63 18.4701 167.224 18.8827 166.679 19.1852C166.135 19.4834 165.452 19.6324 164.631 19.6324C163.46 19.6324 162.568 19.3148 161.954 18.6796C161.345 18.0444 161.04 17.1953 161.04 16.1324V10.0267H162.149V16.1648C162.149 16.9685 162.36 17.5886 162.784 18.025C163.212 18.4614 163.849 18.6796 164.696 18.6796C165.275 18.6796 165.748 18.5759 166.115 18.3685C166.487 18.1568 166.761 17.863 166.939 17.487C167.12 17.1068 167.211 16.6682 167.211 16.1713V10.0267H168.306ZM178.23 19.5028H176.959L171.793 11.5434H171.742C171.754 11.7551 171.77 11.9971 171.787 12.2693C171.804 12.5372 171.817 12.8246 171.826 13.1314C171.839 13.4338 171.845 13.7428 171.845 14.0582V19.5028H170.821V10.0267H172.085L177.231 17.9602H177.277C177.268 17.8089 177.257 17.595 177.244 17.3185C177.231 17.0376 177.219 16.7373 177.206 16.4176C177.197 16.0935 177.193 15.7932 177.193 15.5166V10.0267H178.23V19.5028ZM180.816 19.5028V10.0267H181.918V19.5028H180.816ZM191.141 10.0267L187.738 19.5028H186.63L183.227 10.0267H184.381L186.597 16.2685C186.688 16.5191 186.768 16.7589 186.837 16.9879C186.911 17.217 186.976 17.4373 187.032 17.6491C187.088 17.8608 187.138 18.066 187.181 18.2648C187.224 18.066 187.274 17.8608 187.33 17.6491C187.386 17.433 187.451 17.2105 187.524 16.9815C187.598 16.7481 187.68 16.504 187.771 16.249L189.974 10.0267H191.141ZM197.72 19.5028H192.444V10.0267H197.72V10.9989H193.546V14.0647H197.48V15.024H193.546V18.5306H197.72V19.5028ZM202.38 10.0267C203.158 10.0267 203.8 10.1239 204.305 10.3183C204.815 10.5085 205.195 10.8001 205.446 11.1934C205.697 11.5866 205.822 12.0878 205.822 12.6971C205.822 13.1983 205.731 13.6175 205.55 13.9545C205.368 14.2873 205.131 14.5573 204.837 14.7647C204.543 14.9721 204.23 15.132 203.897 15.2444L206.496 19.5028H205.213L202.892 15.549H200.922V19.5028H199.82V10.0267H202.38ZM202.315 10.9795H200.922V14.6157H202.426C203.199 14.6157 203.767 14.4579 204.13 14.1425C204.498 13.8271 204.681 13.3625 204.681 12.7489C204.681 12.1051 204.487 11.6492 204.098 11.3813C203.713 11.1134 203.119 10.9795 202.315 10.9795ZM213.36 16.9815C213.36 17.5432 213.22 18.0228 212.939 18.4204C212.662 18.8136 212.273 19.1139 211.772 19.3213C211.271 19.5287 210.681 19.6324 210.003 19.6324C209.644 19.6324 209.305 19.6152 208.985 19.5806C208.665 19.546 208.371 19.4963 208.103 19.4315C207.836 19.3667 207.6 19.2868 207.397 19.1917V18.1352C207.721 18.2691 208.116 18.3944 208.583 18.5111C209.05 18.6235 209.538 18.6796 210.048 18.6796C210.523 18.6796 210.925 18.617 211.254 18.4917C211.582 18.362 211.83 18.1784 211.999 17.9407C212.172 17.6988 212.258 17.4092 212.258 17.0722C212.258 16.7481 212.187 16.478 212.044 16.262C211.902 16.0416 211.664 15.8428 211.331 15.6657C211.003 15.4842 210.554 15.2919 209.983 15.0888C209.581 14.9462 209.227 14.7907 208.92 14.6221C208.613 14.4493 208.356 14.2548 208.149 14.0388C207.941 13.8227 207.784 13.5721 207.676 13.2869C207.572 13.0017 207.52 12.6755 207.52 12.3082C207.52 11.8026 207.648 11.3705 207.903 11.0119C208.162 10.6489 208.518 10.3724 208.972 10.1822C209.43 9.98778 209.955 9.89055 210.547 9.89055C211.053 9.89055 211.519 9.93808 211.947 10.0331C212.379 10.1282 212.775 10.2557 213.133 10.4156L212.79 11.3619C212.448 11.2193 212.085 11.1005 211.701 11.0054C211.321 10.9103 210.927 10.8628 210.521 10.8628C210.115 10.8628 209.771 10.9233 209.491 11.0443C209.214 11.161 209.002 11.3273 208.855 11.5434C208.708 11.7594 208.635 12.0165 208.635 12.3147C208.635 12.6474 208.704 12.924 208.842 13.1443C208.985 13.3647 209.21 13.5613 209.516 13.7342C209.828 13.9027 210.238 14.0798 210.748 14.2657C211.305 14.4687 211.779 14.6848 212.167 14.9138C212.556 15.1385 212.852 15.4151 213.055 15.7435C213.259 16.0675 213.36 16.4802 213.36 16.9815ZM215.298 19.5028V10.0267H216.4V19.5028H215.298ZM221.916 19.5028H220.807V10.9989H217.826V10.0267H224.884V10.9989H221.916V19.5028ZM228.734 14.7777L231.256 10.0267H232.442L229.285 15.8277V19.5028H228.184V15.8796L225.021 10.0267H226.226L228.734 14.7777Z" fill="black"/>
<path d="M91.7363 36.0783C93.92 36.0783 95.5134 36.5066 96.5165 37.3631C97.5273 38.2119 98.0327 39.431 98.0327 41.0206C98.0327 41.7382 97.9131 42.4211 97.6739 43.0692C97.4424 43.7097 97.0643 44.2768 96.5396 44.7706C96.0149 45.2568 95.3243 45.6426 94.4678 45.9281C93.619 46.2059 92.5773 46.3448 91.3427 46.3448H89.2825V53H87.3149V36.0783H91.7363ZM91.5511 37.7566H89.2825V44.6549H91.1228C92.2031 44.6549 93.102 44.5392 93.8196 44.3077C94.545 44.0762 95.089 43.7019 95.4516 43.185C95.8143 42.6603 95.9956 41.9658 95.9956 41.1016C95.9956 39.975 95.6368 39.1378 94.9192 38.5899C94.2016 38.0344 93.0789 37.7566 91.5511 37.7566ZM103.218 53H101.285V34.9903H103.218V53ZM112.026 40.1062C113.538 40.1062 114.661 40.4457 115.394 41.1247C116.127 41.8038 116.494 42.8879 116.494 44.3771V53H115.093L114.723 51.125H114.63C114.275 51.5879 113.905 51.9776 113.519 52.294C113.133 52.6026 112.686 52.838 112.177 53C111.675 53.1543 111.058 53.2315 110.325 53.2315C109.553 53.2315 108.866 53.0965 108.264 52.8264C107.67 52.5563 107.2 52.1474 106.852 51.5995C106.513 51.0517 106.343 50.3572 106.343 49.5161C106.343 48.2507 106.845 47.2784 107.848 46.5994C108.851 45.9204 110.379 45.55 112.431 45.4883L114.619 45.3957V44.6202C114.619 43.5245 114.383 42.7567 113.913 42.3169C113.442 41.8771 112.778 41.6571 111.922 41.6571C111.258 41.6571 110.626 41.7536 110.024 41.9465C109.422 42.1394 108.851 42.367 108.311 42.6294L107.72 41.171C108.291 40.8778 108.947 40.627 109.688 40.4187C110.429 40.2104 111.208 40.1062 112.026 40.1062ZM114.596 46.7499L112.663 46.8309C111.081 46.8926 109.966 47.1511 109.318 47.6064C108.67 48.0616 108.345 48.7059 108.345 49.5393C108.345 50.2646 108.565 50.8009 109.005 51.1481C109.445 51.4953 110.028 51.669 110.753 51.669C111.879 51.669 112.802 51.3564 113.519 50.7314C114.237 50.1064 114.596 49.1689 114.596 47.9189V46.7499ZM126.459 40.083C127.964 40.083 129.102 40.4534 129.874 41.1942C130.645 41.9272 131.031 43.1078 131.031 44.7359V53H129.133V44.8632C129.133 43.8061 128.89 43.0152 128.404 42.4905C127.925 41.9658 127.188 41.7034 126.193 41.7034C124.789 41.7034 123.801 42.1008 123.23 42.8956C122.659 43.6904 122.374 44.8439 122.374 46.3563V53H120.452V40.3145H122.003L122.293 42.1433H122.397C122.667 41.6957 123.01 41.3215 123.427 41.0206C123.843 40.7119 124.31 40.4804 124.827 40.3261C125.344 40.1641 125.888 40.083 126.459 40.083ZM152.085 46.6341C152.085 47.6758 151.95 48.6056 151.68 49.4235C151.41 50.2414 151.02 50.9321 150.511 51.4953C150.001 52.0586 149.384 52.4907 148.659 52.7917C147.941 53.0849 147.127 53.2315 146.217 53.2315C145.368 53.2315 144.589 53.0849 143.879 52.7917C143.176 52.4907 142.567 52.0586 142.05 51.4953C141.541 50.9321 141.143 50.2414 140.858 49.4235C140.58 48.6056 140.441 47.6758 140.441 46.6341C140.441 45.2452 140.676 44.0646 141.147 43.0924C141.618 42.1124 142.289 41.3678 143.161 40.8585C144.041 40.3415 145.086 40.083 146.298 40.083C147.455 40.083 148.466 40.3415 149.33 40.8585C150.202 41.3755 150.877 42.124 151.356 43.1039C151.842 44.0762 152.085 45.2529 152.085 46.6341ZM142.432 46.6341C142.432 47.6527 142.567 48.5362 142.837 49.2846C143.107 50.0331 143.524 50.6118 144.087 51.0208C144.65 51.4297 145.376 51.6342 146.263 51.6342C147.143 51.6342 147.864 51.4297 148.427 51.0208C148.998 50.6118 149.419 50.0331 149.689 49.2846C149.959 48.5362 150.094 47.6527 150.094 46.6341C150.094 45.6233 149.959 44.7514 149.689 44.0183C149.419 43.2776 149.002 42.7066 148.439 42.3053C147.876 41.9041 147.146 41.7034 146.251 41.7034C144.932 41.7034 143.964 42.1394 143.346 43.0113C142.737 43.8833 142.432 45.0909 142.432 46.6341ZM161.055 41.8192H157.895V53H155.974V41.8192H153.728V40.8932L155.974 40.2567V39.4117C155.974 38.3469 156.132 37.4827 156.448 36.8191C156.765 36.1478 157.224 35.6539 157.826 35.3376C158.428 35.0212 159.161 34.863 160.025 34.863C160.511 34.863 160.955 34.9055 161.356 34.9903C161.765 35.0752 162.124 35.1717 162.432 35.2797L161.935 36.7959C161.672 36.711 161.375 36.6339 161.043 36.5644C160.719 36.4873 160.388 36.4487 160.048 36.4487C159.315 36.4487 158.771 36.6879 158.416 37.1663C158.069 37.637 157.895 38.3778 157.895 39.3886V40.3145H161.055V41.8192ZM179.389 48.4976C179.389 49.5007 179.138 50.3572 178.636 51.0671C178.143 51.7693 177.448 52.3055 176.553 52.6759C175.658 53.0463 174.605 53.2315 173.393 53.2315C172.753 53.2315 172.147 53.2006 171.576 53.1389C171.005 53.0772 170.48 52.9884 170.002 52.8727C169.524 52.7569 169.103 52.6142 168.74 52.4444V50.5578C169.319 50.797 170.025 51.0208 170.858 51.2291C171.692 51.4297 172.564 51.5301 173.474 51.5301C174.323 51.5301 175.041 51.4182 175.627 51.1944C176.214 50.9629 176.657 50.635 176.958 50.2106C177.267 49.7785 177.421 49.2615 177.421 48.6596C177.421 48.0809 177.294 47.5986 177.039 47.2128C176.785 46.8193 176.36 46.4644 175.766 46.148C175.18 45.8239 174.377 45.4805 173.358 45.1179C172.641 44.8632 172.008 44.5855 171.46 44.2845C170.912 43.9759 170.453 43.6286 170.083 43.2428C169.713 42.857 169.431 42.4095 169.238 41.9002C169.053 41.3909 168.96 40.8084 168.96 40.1525C168.96 39.2497 169.188 38.4781 169.643 37.8376C170.106 37.1895 170.743 36.6956 171.553 36.3561C172.371 36.0089 173.308 35.8353 174.365 35.8353C175.268 35.8353 176.102 35.9201 176.866 36.0899C177.637 36.2596 178.343 36.4873 178.984 36.7728L178.37 38.4626C177.761 38.208 177.112 37.9958 176.426 37.826C175.747 37.6563 175.044 37.5714 174.319 37.5714C173.594 37.5714 172.98 37.6794 172.479 37.8955C171.985 38.1038 171.607 38.4009 171.345 38.7867C171.082 39.1725 170.951 39.6316 170.951 40.1641C170.951 40.7582 171.074 41.252 171.321 41.6456C171.576 42.0391 171.977 42.3902 172.525 42.6988C173.081 42.9998 173.814 43.3161 174.724 43.6479C175.72 44.0106 176.565 44.3964 177.259 44.8054C177.954 45.2066 178.482 45.7005 178.845 46.2869C179.207 46.8656 179.389 47.6025 179.389 48.4976ZM187.306 40.1062C188.818 40.1062 189.941 40.4457 190.674 41.1247C191.407 41.8038 191.773 42.8879 191.773 44.3771V53H190.373L190.002 51.125H189.91C189.555 51.5879 189.184 51.9776 188.799 52.294C188.413 52.6026 187.965 52.838 187.456 53C186.954 53.1543 186.337 53.2315 185.604 53.2315C184.833 53.2315 184.146 53.0965 183.544 52.8264C182.95 52.5563 182.479 52.1474 182.132 51.5995C181.792 51.0517 181.623 50.3572 181.623 49.5161C181.623 48.2507 182.124 47.2784 183.127 46.5994C184.13 45.9204 185.658 45.55 187.711 45.4883L189.898 45.3957V44.6202C189.898 43.5245 189.663 42.7567 189.192 42.3169C188.721 41.8771 188.058 41.6571 187.201 41.6571C186.538 41.6571 185.905 41.7536 185.303 41.9465C184.701 42.1394 184.13 42.367 183.59 42.6294L183 41.171C183.571 40.8778 184.227 40.627 184.968 40.4187C185.708 40.2104 186.488 40.1062 187.306 40.1062ZM189.875 46.7499L187.942 46.8309C186.36 46.8926 185.245 47.1511 184.597 47.6064C183.949 48.0616 183.625 48.7059 183.625 49.5393C183.625 50.2646 183.845 50.8009 184.285 51.1481C184.724 51.4953 185.307 51.669 186.032 51.669C187.159 51.669 188.081 51.3564 188.799 50.7314C189.516 50.1064 189.875 49.1689 189.875 47.9189V46.7499ZM201.38 41.8192H198.22V53H196.299V41.8192H194.053V40.8932L196.299 40.2567V39.4117C196.299 38.3469 196.457 37.4827 196.773 36.8191C197.09 36.1478 197.549 35.6539 198.151 35.3376C198.753 35.0212 199.486 34.863 200.35 34.863C200.836 34.863 201.28 34.9055 201.681 34.9903C202.09 35.0752 202.449 35.1717 202.757 35.2797L202.26 36.7959C201.997 36.711 201.7 36.6339 201.368 36.5644C201.044 36.4873 200.713 36.4487 200.373 36.4487C199.64 36.4487 199.096 36.6879 198.741 37.1663C198.394 37.637 198.22 38.3778 198.22 39.3886V40.3145H201.38V41.8192ZM208.602 40.083C209.683 40.083 210.609 40.3222 211.38 40.8006C212.152 41.2791 212.742 41.9504 213.151 42.8146C213.56 43.6711 213.765 44.6742 213.765 45.8239V47.0161H205.003C205.026 48.5053 205.396 49.6396 206.114 50.4189C206.831 51.1983 207.842 51.5879 209.146 51.5879C209.949 51.5879 210.659 51.5146 211.276 51.368C211.893 51.2214 212.534 51.0054 213.197 50.7199V52.4097C212.557 52.6952 211.92 52.9035 211.288 53.0347C210.663 53.1659 209.922 53.2315 209.065 53.2315C207.846 53.2315 206.781 52.9846 205.871 52.4907C204.968 51.9892 204.266 51.2561 203.764 50.2916C203.263 49.3271 203.012 48.1465 203.012 46.7499C203.012 45.3841 203.24 44.2035 203.695 43.2081C204.158 42.205 204.806 41.4334 205.639 40.8932C206.48 40.3531 207.468 40.083 208.602 40.083ZM208.579 41.6571C207.553 41.6571 206.735 41.9928 206.125 42.6641C205.516 43.3354 205.153 44.2729 205.037 45.4767H211.751C211.743 44.7205 211.623 44.0569 211.392 43.4859C211.168 42.9072 210.825 42.4596 210.362 42.1433C209.899 41.8192 209.305 41.6571 208.579 41.6571ZM230.709 37.5714C229.776 37.5714 228.935 37.7334 228.186 38.0575C227.445 38.3739 226.813 38.8369 226.288 39.4464C225.771 40.0483 225.374 40.7775 225.096 41.634C224.818 42.4905 224.679 43.455 224.679 44.5276C224.679 45.9474 224.899 47.182 225.339 48.2314C225.786 49.2731 226.45 50.0794 227.33 50.6504C228.217 51.2214 229.324 51.5069 230.651 51.5069C231.408 51.5069 232.118 51.4452 232.781 51.3217C233.452 51.1905 234.104 51.0285 234.737 50.8356V52.5486C234.12 52.7801 233.472 52.9498 232.793 53.0579C232.114 53.1736 231.307 53.2315 230.374 53.2315C228.653 53.2315 227.214 52.8765 226.056 52.1666C224.907 51.449 224.043 50.4382 223.464 49.1342C222.893 47.8301 222.607 46.2907 222.607 44.516C222.607 43.2351 222.785 42.0661 223.14 41.009C223.502 39.9441 224.027 39.0259 224.714 38.2543C225.408 37.4827 226.257 36.8885 227.26 36.4718C228.271 36.0475 229.428 35.8353 230.732 35.8353C231.589 35.8353 232.415 35.9201 233.209 36.0899C234.004 36.2596 234.722 36.5027 235.362 36.8191L234.575 38.4858C234.035 38.2389 233.441 38.0267 232.793 37.8492C232.152 37.664 231.458 37.5714 230.709 37.5714ZM242.862 40.1062C244.375 40.1062 245.497 40.4457 246.231 41.1247C246.964 41.8038 247.33 42.8879 247.33 44.3771V53H245.93L245.559 51.125H245.467C245.112 51.5879 244.741 51.9776 244.355 52.294C243.97 52.6026 243.522 52.838 243.013 53C242.511 53.1543 241.894 53.2315 241.161 53.2315C240.389 53.2315 239.703 53.0965 239.101 52.8264C238.507 52.5563 238.036 52.1474 237.689 51.5995C237.349 51.0517 237.179 50.3572 237.179 49.5161C237.179 48.2507 237.681 47.2784 238.684 46.5994C239.687 45.9204 241.215 45.55 243.268 45.4883L245.455 45.3957V44.6202C245.455 43.5245 245.22 42.7567 244.749 42.3169C244.278 41.8771 243.615 41.6571 242.758 41.6571C242.095 41.6571 241.462 41.7536 240.86 41.9465C240.258 42.1394 239.687 42.367 239.147 42.6294L238.557 41.171C239.128 40.8778 239.784 40.627 240.524 40.4187C241.265 40.2104 242.044 40.1062 242.862 40.1062ZM245.432 46.7499L243.499 46.8309C241.917 46.8926 240.802 47.1511 240.154 47.6064C239.506 48.0616 239.182 48.7059 239.182 49.5393C239.182 50.2646 239.402 50.8009 239.842 51.1481C240.281 51.4953 240.864 51.669 241.589 51.669C242.716 51.669 243.638 51.3564 244.355 50.7314C245.073 50.1064 245.432 49.1689 245.432 47.9189V46.7499ZM257.053 40.083C257.307 40.083 257.573 40.0985 257.851 40.1293C258.129 40.1525 258.376 40.1872 258.592 40.2335L258.349 42.016C258.141 41.9619 257.909 41.9195 257.654 41.8886C257.4 41.8578 257.161 41.8423 256.937 41.8423C256.428 41.8423 255.945 41.9465 255.49 42.1548C255.042 42.3555 254.649 42.6487 254.309 43.0345C253.97 43.4126 253.704 43.8717 253.511 44.4118C253.318 44.9443 253.221 45.5384 253.221 46.1943V53H251.289V40.3145H252.886L253.094 42.6525H253.175C253.437 42.1819 253.754 41.7536 254.124 41.3678C254.495 40.9743 254.923 40.6618 255.409 40.4303C255.903 40.1988 256.451 40.083 257.053 40.083ZM265.872 40.083C266.952 40.083 267.878 40.3222 268.65 40.8006C269.422 41.2791 270.012 41.9504 270.421 42.8146C270.83 43.6711 271.034 44.6742 271.034 45.8239V47.0161H262.273C262.296 48.5053 262.666 49.6396 263.384 50.4189C264.101 51.1983 265.112 51.5879 266.416 51.5879C267.219 51.5879 267.929 51.5146 268.546 51.368C269.163 51.2214 269.804 51.0054 270.467 50.7199V52.4097C269.827 52.6952 269.19 52.9035 268.557 53.0347C267.932 53.1659 267.192 53.2315 266.335 53.2315C265.116 53.2315 264.051 52.9846 263.141 52.4907C262.238 51.9892 261.536 51.2561 261.034 50.2916C260.533 49.3271 260.282 48.1465 260.282 46.7499C260.282 45.3841 260.509 44.2035 260.965 43.2081C261.428 42.205 262.076 41.4334 262.909 40.8932C263.75 40.3531 264.738 40.083 265.872 40.083ZM265.849 41.6571C264.823 41.6571 264.005 41.9928 263.395 42.6641C262.786 43.3354 262.423 44.2729 262.307 45.4767H269.02C269.013 44.7205 268.893 44.0569 268.662 43.4859C268.438 42.9072 268.094 42.4596 267.631 42.1433C267.169 41.8192 266.574 41.6571 265.849 41.6571Z" fill="black"/>
</svg>
