<svg width="375" height="58" viewBox="0 0 375 58" fill="none" xmlns="http://www.w3.org/2000/svg">
<path d="M32 7H37C38.3261 7 39.5979 7.52678 40.5355 8.46447C41.4732 9.40215 42 10.6739 42 12V47C42 48.3261 41.4732 49.5979 40.5355 50.5355C39.5979 51.4732 38.3261 52 37 52H7C5.67392 52 4.40215 51.4732 3.46447 50.5355C2.52678 49.5979 2 48.3261 2 47V12C2 10.6739 2.52678 9.40215 3.46447 8.46447C4.40215 7.52678 5.67392 7 7 7H12M14.5 2H29.5C30.8807 2 32 3.11929 32 4.5V9.5C32 10.8807 30.8807 12 29.5 12H14.5C13.1193 12 12 10.8807 12 9.5V4.5C12 3.11929 13.1193 2 14.5 2Z" stroke="#5D1B2A" strokeWidth="4" strokeLinecap="round" strokeLinejoin="round"/>
<path d="M30.0715 24.1281C29.6015 23.658 29.0436 23.285 28.4295 23.0306C27.8154 22.7761 27.1572 22.6452 26.4925 22.6452C25.8278 22.6452 25.1695 22.7761 24.5554 23.0306C23.9413 23.285 23.3834 23.658 22.9135 24.1281L21.9382 25.1034L20.963 24.1281C20.0138 23.1789 18.7264 22.6456 17.384 22.6456C16.0416 22.6456 14.7542 23.1789 13.805 24.1281C12.8558 25.0773 12.3225 26.3647 12.3225 27.7071C12.3225 29.0495 12.8558 30.3369 13.805 31.2861L21.9382 39.4194L30.0715 31.2861C30.5416 30.8162 30.9146 30.2582 31.169 29.6441C31.4235 29.03 31.5544 28.3718 31.5544 27.7071C31.5544 27.0424 31.4235 26.3842 31.169 25.7701C30.9146 25.156 30.5416 24.598 30.0715 24.1281Z" stroke="#5D1B2A" strokeWidth="4" strokeLinecap="round" strokeLinejoin="round"/>
<path d="M75.515 11.249C75.515 11.9792 75.4221 12.6447 75.2363 13.2453C75.0505 13.8416 74.774 14.3558 74.4067 14.7879C74.0437 15.2157 73.5921 15.5463 73.052 15.7796C72.5119 16.013 71.8853 16.1296 71.1723 16.1296C70.4378 16.1296 69.7961 16.013 69.2473 15.7796C68.7028 15.5463 68.2491 15.2136 67.8862 14.7815C67.5275 14.3493 67.2574 13.833 67.076 13.2323C66.8988 12.6317 66.8102 11.9663 66.8102 11.236C66.8102 10.2681 66.9701 9.41899 67.2898 8.68872C67.6096 7.95846 68.0936 7.39024 68.7417 6.98405C69.3942 6.57787 70.2109 6.37478 71.1918 6.37478C72.1295 6.37478 72.9181 6.57571 73.5576 6.97757C74.2014 7.37943 74.6875 7.9455 75.0159 8.67576C75.3487 9.4017 75.515 10.2594 75.515 11.249ZM67.9704 11.249C67.9704 12.0527 68.0849 12.7484 68.3139 13.3361C68.543 13.9237 68.893 14.3774 69.364 14.6972C69.8393 15.017 70.4421 15.1768 71.1723 15.1768C71.9069 15.1768 72.5076 15.017 72.9742 14.6972C73.4452 14.3774 73.7931 13.9237 74.0178 13.3361C74.2425 12.7484 74.3548 12.0527 74.3548 11.249C74.3548 10.0261 74.0977 9.07114 73.5835 8.38409C73.0736 7.69271 72.2764 7.34702 71.1918 7.34702C70.4572 7.34702 69.8522 7.50474 69.3769 7.82018C68.9016 8.13562 68.5473 8.58502 68.3139 9.16836C68.0849 9.74739 67.9704 10.4409 67.9704 11.249ZM78.5484 16H77.466V5.91458H78.5484V16ZM81.8994 8.89613V16H80.8235V8.89613H81.8994ZM81.3744 6.23867C81.5516 6.23867 81.7028 6.297 81.8281 6.41367C81.9578 6.52602 82.0226 6.70318 82.0226 6.94516C82.0226 7.18282 81.9578 7.35999 81.8281 7.47666C81.7028 7.59333 81.5516 7.65166 81.3744 7.65166C81.1886 7.65166 81.0331 7.59333 80.9077 7.47666C80.7868 7.35999 80.7263 7.18282 80.7263 6.94516C80.7263 6.70318 80.7868 6.52602 80.9077 6.41367C81.0331 6.297 81.1886 6.23867 81.3744 6.23867ZM85.743 16L83.0467 8.89613H84.2004L85.7625 13.1935C85.8705 13.4873 85.9807 13.8114 86.0931 14.1657C86.2054 14.52 86.2832 14.8052 86.3264 15.0213H86.3718C86.4236 14.8052 86.51 14.52 86.631 14.1657C86.752 13.807 86.8622 13.483 86.9616 13.1935L88.5237 8.89613H89.6774L86.9746 16H85.743ZM91.8941 8.89613V16H90.8182V8.89613H91.8941ZM91.3691 6.23867C91.5463 6.23867 91.6975 6.297 91.8228 6.41367C91.9524 6.52602 92.0173 6.70318 92.0173 6.94516C92.0173 7.18282 91.9524 7.35999 91.8228 7.47666C91.6975 7.59333 91.5463 7.65166 91.3691 7.65166C91.1833 7.65166 91.0277 7.59333 90.9024 7.47666C90.7814 7.35999 90.7209 7.18282 90.7209 6.94516C90.7209 6.70318 90.7814 6.52602 90.9024 6.41367C91.0277 6.297 91.1833 6.23867 91.3691 6.23867ZM96.8331 8.77946C97.68 8.77946 98.3088 8.96959 98.7193 9.34985C99.1298 9.7301 99.335 10.3372 99.335 11.1712V16H98.5507L98.3433 14.95H98.2915C98.0927 15.2092 97.8853 15.4275 97.6692 15.6046C97.4532 15.7775 97.2026 15.9093 96.9174 16C96.6365 16.0864 96.2908 16.1296 95.8803 16.1296C95.4482 16.1296 95.0636 16.054 94.7266 15.9028C94.3939 15.7515 94.1303 15.5225 93.9358 15.2157C93.7457 14.9089 93.6506 14.52 93.6506 14.049C93.6506 13.3404 93.9315 12.7959 94.4932 12.4157C95.055 12.0354 95.9106 11.828 97.06 11.7934L98.285 11.7416V11.3073C98.285 10.6937 98.1532 10.2638 97.8896 10.0175C97.626 9.77115 97.2544 9.648 96.7748 9.648C96.4032 9.648 96.0488 9.70202 95.7118 9.81004C95.3747 9.91807 95.055 10.0455 94.7525 10.1925L94.4219 9.37577C94.7417 9.21157 95.109 9.07114 95.5238 8.95447C95.9386 8.8378 96.3751 8.77946 96.8331 8.77946ZM98.272 12.4999L97.1896 12.5453C96.3038 12.5799 95.6794 12.7246 95.3164 12.9796C94.9534 13.2345 94.772 13.5953 94.772 14.062C94.772 14.4682 94.8951 14.7685 95.1414 14.9629C95.3877 15.1574 95.714 15.2546 96.1201 15.2546C96.751 15.2546 97.2674 15.0796 97.6692 14.7296C98.0711 14.3796 98.272 13.8546 98.272 13.1546V12.4999ZM108.895 16H107.794V11.5342H102.816V16H101.714V6.52386H102.816V10.5619H107.794V6.52386H108.895V16ZM114.074 8.7665C114.679 8.7665 115.198 8.90046 115.63 9.16836C116.062 9.43627 116.393 9.8122 116.622 10.2962C116.851 10.7758 116.965 11.3375 116.965 11.9814V12.649H112.058C112.071 13.483 112.279 14.1182 112.681 14.5546C113.083 14.991 113.649 15.2092 114.379 15.2092C114.828 15.2092 115.226 15.1682 115.572 15.0861C115.917 15.004 116.276 14.883 116.647 14.7231V15.6694C116.289 15.8293 115.932 15.946 115.578 16.0194C115.228 16.0929 114.813 16.1296 114.334 16.1296C113.651 16.1296 113.054 15.9914 112.545 15.7148C112.039 15.4339 111.646 15.0234 111.365 14.4833C111.084 13.9432 110.944 13.282 110.944 12.4999C110.944 11.7351 111.071 11.074 111.326 10.5165C111.585 9.9548 111.948 9.52269 112.415 9.22022C112.886 8.91774 113.439 8.7665 114.074 8.7665ZM114.061 9.648C113.487 9.648 113.029 9.83597 112.687 10.2119C112.346 10.5878 112.143 11.1129 112.078 11.7869H115.837C115.833 11.3635 115.766 10.9919 115.636 10.6721C115.511 10.348 115.319 10.0974 115.059 9.92023C114.8 9.73875 114.467 9.648 114.061 9.648ZM121.45 8.77946C122.297 8.77946 122.926 8.96959 123.336 9.34985C123.747 9.7301 123.952 10.3372 123.952 11.1712V16H123.168L122.961 14.95H122.909C122.71 15.2092 122.503 15.4275 122.286 15.6046C122.07 15.7775 121.82 15.9093 121.535 16C121.254 16.0864 120.908 16.1296 120.498 16.1296C120.065 16.1296 119.681 16.054 119.344 15.9028C119.011 15.7515 118.747 15.5225 118.553 15.2157C118.363 14.9089 118.268 14.52 118.268 14.049C118.268 13.3404 118.549 12.7959 119.11 12.4157C119.672 12.0354 120.528 11.828 121.677 11.7934L122.902 11.7416V11.3073C122.902 10.6937 122.77 10.2638 122.507 10.0175C122.243 9.77115 121.872 9.648 121.392 9.648C121.02 9.648 120.666 9.70202 120.329 9.81004C119.992 9.91807 119.672 10.0455 119.37 10.1925L119.039 9.37577C119.359 9.21157 119.726 9.07114 120.141 8.95447C120.556 8.8378 120.992 8.77946 121.45 8.77946ZM122.889 12.4999L121.807 12.5453C120.921 12.5799 120.297 12.7246 119.934 12.9796C119.571 13.2345 119.389 13.5953 119.389 14.062C119.389 14.4682 119.512 14.7685 119.759 14.9629C120.005 15.1574 120.331 15.2546 120.737 15.2546C121.368 15.2546 121.885 15.0796 122.286 14.7296C122.688 14.3796 122.889 13.8546 122.889 13.1546V12.4999ZM127.251 16H126.169V5.91458H127.251V16ZM131.821 15.2481C131.998 15.2481 132.18 15.233 132.365 15.2028C132.551 15.1725 132.702 15.1358 132.819 15.0926V15.9287C132.694 15.9849 132.519 16.0324 132.294 16.0713C132.074 16.1102 131.858 16.1296 131.646 16.1296C131.27 16.1296 130.929 16.0648 130.622 15.9352C130.315 15.8012 130.069 15.5765 129.883 15.2611C129.701 14.9457 129.611 14.5092 129.611 13.9518V9.73875H128.6V9.21373L129.617 8.79243L130.045 7.2498H130.693V8.89613H132.774V9.73875H130.693V13.9194C130.693 14.3645 130.795 14.6972 130.998 14.9176C131.205 15.1379 131.48 15.2481 131.821 15.2481ZM135.334 5.91458V8.92854C135.334 9.10139 135.33 9.27639 135.321 9.45355C135.312 9.6264 135.297 9.78628 135.276 9.93319H135.347C135.494 9.68257 135.68 9.473 135.904 9.30448C136.133 9.13163 136.393 9.002 136.682 8.91558C136.972 8.82484 137.278 8.77946 137.603 8.77946C138.173 8.77946 138.648 8.87021 139.029 9.05169C139.413 9.23318 139.7 9.51405 139.891 9.89431C140.085 10.2746 140.182 10.7672 140.182 11.3721V16H139.119V11.4434C139.119 10.8514 138.983 10.4085 138.711 10.1147C138.443 9.82085 138.03 9.67393 137.473 9.67393C136.946 9.67393 136.524 9.77548 136.209 9.97857C135.898 10.1773 135.673 10.4712 135.535 10.8601C135.401 11.249 135.334 11.7243 135.334 12.286V16H134.258V5.91458H135.334Z" fill="black"/>
<path d="M72.8487 32.5755C75.0324 32.5755 76.6258 33.0038 77.6289 33.8603C78.6397 34.7091 79.1451 35.9282 79.1451 37.5178C79.1451 38.2354 79.0255 38.9183 78.7863 39.5664C78.5548 40.2069 78.1767 40.774 77.652 41.2679C77.1273 41.754 76.4367 42.1398 75.5802 42.4253C74.7315 42.7031 73.6898 42.842 72.4552 42.842H70.3949V49.4972H68.4273V32.5755H72.8487ZM72.6635 34.2538H70.3949V41.1521H72.2353C73.3155 41.1521 74.2145 41.0364 74.9321 40.8049C75.6574 40.5734 76.2014 40.1992 76.5641 39.6822C76.9267 39.1575 77.108 38.463 77.108 37.5988C77.108 36.4722 76.7492 35.635 76.0316 35.0872C75.314 34.5316 74.1913 34.2538 72.6635 34.2538ZM84.3304 49.4972H82.3975V31.4876H84.3304V49.4972ZM93.1385 36.6034C94.6509 36.6034 95.7736 36.9429 96.5066 37.622C97.2397 38.301 97.6062 39.3851 97.6062 40.8743V49.4972H96.2057L95.8353 47.6222H95.7427C95.3878 48.0852 95.0174 48.4748 94.6316 48.7912C94.2458 49.0998 93.7982 49.3352 93.289 49.4972C92.7874 49.6515 92.1701 49.7287 91.4371 49.7287C90.6655 49.7287 89.9787 49.5937 89.3768 49.3236C88.7827 49.0535 88.312 48.6446 87.9648 48.0967C87.6253 47.5489 87.4555 46.8544 87.4555 46.0133C87.4555 44.7479 87.9571 43.7756 88.9602 43.0966C89.9633 42.4176 91.4911 42.0472 93.5436 41.9855L95.7312 41.8929V41.1174C95.7312 40.0217 95.4958 39.2539 95.0251 38.8141C94.5544 38.3743 93.8908 38.1544 93.0343 38.1544C92.3707 38.1544 91.738 38.2508 91.1361 38.4437C90.5343 38.6366 89.9633 38.8643 89.4231 39.1266L88.8329 37.6682C89.4039 37.375 90.0597 37.1243 90.8005 36.9159C91.5412 36.7076 92.3206 36.6034 93.1385 36.6034ZM95.708 43.2471L93.7751 43.3281C92.1933 43.3898 91.0783 43.6483 90.4301 44.1036C89.7819 44.5588 89.4579 45.2031 89.4579 46.0365C89.4579 46.7618 89.6778 47.2981 90.1176 47.6453C90.5574 47.9926 91.14 48.1662 91.8653 48.1662C92.9919 48.1662 93.914 47.8537 94.6316 47.2287C95.3492 46.6036 95.708 45.6661 95.708 44.4161V43.2471ZM107.572 36.5803C109.076 36.5803 110.215 36.9506 110.986 37.6914C111.758 38.4244 112.144 39.605 112.144 41.2331V49.4972H110.245V41.3605C110.245 40.3033 110.002 39.5124 109.516 38.9877C109.038 38.463 108.301 38.2007 107.305 38.2007C105.901 38.2007 104.913 38.5981 104.342 39.3928C103.771 40.1876 103.486 41.3412 103.486 42.8536V49.4972H101.565V36.8117H103.116L103.405 38.6405H103.509C103.779 38.193 104.123 37.8187 104.539 37.5178C104.956 37.2091 105.423 36.9776 105.94 36.8233C106.457 36.6613 107.001 36.5803 107.572 36.5803ZM133.197 43.1313C133.197 44.173 133.062 45.1028 132.792 45.9208C132.522 46.7387 132.132 47.4293 131.623 47.9926C131.114 48.5558 130.497 48.988 129.771 49.2889C129.054 49.5821 128.24 49.7287 127.329 49.7287C126.48 49.7287 125.701 49.5821 124.991 49.2889C124.289 48.988 123.679 48.5558 123.162 47.9926C122.653 47.4293 122.256 46.7387 121.97 45.9208C121.692 45.1028 121.554 44.173 121.554 43.1313C121.554 41.7424 121.789 40.5618 122.26 39.5896C122.73 38.6096 123.402 37.865 124.273 37.3557C125.153 36.8388 126.199 36.5803 127.41 36.5803C128.568 36.5803 129.578 36.8388 130.443 37.3557C131.315 37.8727 131.99 38.6212 132.468 39.6012C132.954 40.5734 133.197 41.7501 133.197 43.1313ZM123.544 43.1313C123.544 44.1499 123.679 45.0334 123.949 45.7819C124.219 46.5303 124.636 47.1091 125.199 47.518C125.763 47.927 126.488 48.1315 127.375 48.1315C128.255 48.1315 128.977 47.927 129.54 47.518C130.111 47.1091 130.531 46.5303 130.801 45.7819C131.071 45.0334 131.207 44.1499 131.207 43.1313C131.207 42.1205 131.071 41.2486 130.801 40.5155C130.531 39.7748 130.115 39.2038 129.551 38.8025C128.988 38.4013 128.259 38.2007 127.364 38.2007C126.044 38.2007 125.076 38.6366 124.459 39.5086C123.849 40.3805 123.544 41.5881 123.544 43.1313ZM142.167 38.3164H139.008V49.4972H137.086V38.3164H134.841V37.3905L137.086 36.7539V35.9089C137.086 34.8441 137.244 33.9799 137.561 33.3163C137.877 32.645 138.336 32.1511 138.938 31.8348C139.54 31.5184 140.273 31.3602 141.137 31.3602C141.623 31.3602 142.067 31.4027 142.468 31.4876C142.877 31.5724 143.236 31.6689 143.545 31.7769L143.047 33.2931C142.785 33.2083 142.488 33.1311 142.156 33.0617C141.832 32.9845 141.5 32.9459 141.16 32.9459C140.427 32.9459 139.883 33.1851 139.528 33.6635C139.181 34.1342 139.008 34.875 139.008 35.8858V36.8117H142.167V38.3164ZM160.501 44.9948C160.501 45.9979 160.25 46.8544 159.749 47.5643C159.255 48.2665 158.561 48.8028 157.665 49.1731C156.77 49.5435 155.717 49.7287 154.506 49.7287C153.865 49.7287 153.259 49.6978 152.688 49.6361C152.117 49.5744 151.593 49.4856 151.114 49.3699C150.636 49.2542 150.215 49.1114 149.853 48.9417V47.055C150.431 47.2942 151.138 47.518 151.971 47.7263C152.804 47.927 153.676 48.0273 154.587 48.0273C155.435 48.0273 156.153 47.9154 156.739 47.6916C157.326 47.4601 157.77 47.1322 158.071 46.7078C158.379 46.2757 158.534 45.7587 158.534 45.1568C158.534 44.5781 158.406 44.0959 158.152 43.7101C157.897 43.3165 157.473 42.9616 156.878 42.6452C156.292 42.3211 155.489 41.9778 154.471 41.6151C153.753 41.3605 153.121 41.0827 152.573 40.7817C152.025 40.4731 151.566 40.1259 151.195 39.7401C150.825 39.3542 150.543 38.9067 150.35 38.3974C150.165 37.8882 150.073 37.3056 150.073 36.6497C150.073 35.7469 150.3 34.9753 150.756 34.3348C151.219 33.6867 151.855 33.1928 152.665 32.8533C153.483 32.5061 154.421 32.3325 155.478 32.3325C156.381 32.3325 157.214 32.4174 157.978 32.5871C158.75 32.7569 159.456 32.9845 160.096 33.27L159.483 34.9599C158.873 34.7052 158.225 34.493 157.538 34.3233C156.859 34.1535 156.157 34.0686 155.432 34.0686C154.706 34.0686 154.093 34.1767 153.591 34.3927C153.097 34.601 152.719 34.8981 152.457 35.2839C152.195 35.6697 152.063 36.1289 152.063 36.6613C152.063 37.2554 152.187 37.7493 152.434 38.1428C152.688 38.5363 153.09 38.8874 153.638 39.1961C154.193 39.497 154.926 39.8134 155.837 40.1452C156.832 40.5078 157.677 40.8936 158.371 41.3026C159.066 41.7038 159.594 42.1977 159.957 42.7841C160.32 43.3628 160.501 44.0997 160.501 44.9948ZM168.418 36.6034C169.93 36.6034 171.053 36.9429 171.786 37.622C172.519 38.301 172.886 39.3851 172.886 40.8743V49.4972H171.485L171.115 47.6222H171.022C170.667 48.0852 170.297 48.4748 169.911 48.7912C169.525 49.0998 169.078 49.3352 168.568 49.4972C168.067 49.6515 167.45 49.7287 166.717 49.7287C165.945 49.7287 165.258 49.5937 164.656 49.3236C164.062 49.0535 163.591 48.6446 163.244 48.0967C162.905 47.5489 162.735 46.8544 162.735 46.0133C162.735 44.7479 163.237 43.7756 164.24 43.0966C165.243 42.4176 166.771 42.0472 168.823 41.9855L171.011 41.8929V41.1174C171.011 40.0217 170.775 39.2539 170.305 38.8141C169.834 38.3743 169.17 38.1544 168.314 38.1544C167.65 38.1544 167.018 38.2508 166.416 38.4437C165.814 38.6366 165.243 38.8643 164.703 39.1266L164.112 37.6682C164.683 37.375 165.339 37.1243 166.08 36.9159C166.821 36.7076 167.6 36.6034 168.418 36.6034ZM170.988 43.2471L169.055 43.3281C167.473 43.3898 166.358 43.6483 165.71 44.1036C165.061 44.5588 164.737 45.2031 164.737 46.0365C164.737 46.7618 164.957 47.2981 165.397 47.6453C165.837 47.9926 166.419 48.1662 167.145 48.1662C168.271 48.1662 169.193 47.8537 169.911 47.2287C170.629 46.6036 170.988 45.6661 170.988 44.4161V43.2471ZM182.492 38.3164H179.333V49.4972H177.411V38.3164H175.166V37.3905L177.411 36.7539V35.9089C177.411 34.8441 177.569 33.9799 177.886 33.3163C178.202 32.645 178.661 32.1511 179.263 31.8348C179.865 31.5184 180.598 31.3602 181.462 31.3602C181.948 31.3602 182.392 31.4027 182.793 31.4876C183.202 31.5724 183.561 31.6689 183.87 31.7769L183.372 33.2931C183.11 33.2083 182.813 33.1311 182.481 33.0617C182.157 32.9845 181.825 32.9459 181.485 32.9459C180.752 32.9459 180.208 33.1851 179.853 33.6635C179.506 34.1342 179.333 34.875 179.333 35.8858V36.8117H182.492V38.3164ZM189.715 36.5803C190.795 36.5803 191.721 36.8195 192.493 37.2979C193.264 37.7763 193.855 38.4476 194.263 39.3118C194.672 40.1683 194.877 41.1714 194.877 42.3211V43.5133H186.115C186.138 45.0025 186.509 46.1368 187.226 46.9161C187.944 47.6955 188.955 48.0852 190.259 48.0852C191.061 48.0852 191.771 48.0118 192.388 47.8652C193.006 47.7186 193.646 47.5026 194.31 47.2171V48.9069C193.669 49.1924 193.033 49.4008 192.4 49.5319C191.775 49.6631 191.034 49.7287 190.178 49.7287C188.959 49.7287 187.894 49.4818 186.983 48.988C186.08 48.4864 185.378 47.7534 184.877 46.7888C184.375 45.8243 184.124 44.6437 184.124 43.2471C184.124 41.8813 184.352 40.7007 184.807 39.7053C185.27 38.7022 185.918 37.9306 186.752 37.3905C187.593 36.8503 188.58 36.5803 189.715 36.5803ZM189.692 38.1544C188.665 38.1544 187.847 38.49 187.238 39.1613C186.628 39.8327 186.266 40.7702 186.15 41.9739H192.863C192.855 41.2177 192.736 40.5541 192.504 39.9831C192.28 39.4044 191.937 38.9569 191.474 38.6405C191.011 38.3164 190.417 38.1544 189.692 38.1544ZM211.822 34.0686C210.888 34.0686 210.047 34.2307 209.299 34.5548C208.558 34.8711 207.925 35.3341 207.4 35.9437C206.883 36.5455 206.486 37.2747 206.208 38.1312C205.93 38.9877 205.792 39.9523 205.792 41.0248C205.792 42.4446 206.011 43.6792 206.451 44.7286C206.899 45.7703 207.562 46.5766 208.442 47.1476C209.329 47.7186 210.437 48.0041 211.764 48.0041C212.52 48.0041 213.23 47.9424 213.894 47.8189C214.565 47.6878 215.217 47.5257 215.85 47.3328V49.0458C215.232 49.2773 214.584 49.4471 213.905 49.5551C213.226 49.6708 212.42 49.7287 211.486 49.7287C209.765 49.7287 208.326 49.3738 207.169 48.6639C206.019 47.9463 205.155 46.9354 204.576 45.6314C204.005 44.3274 203.72 42.788 203.72 41.0132C203.72 39.7323 203.897 38.5633 204.252 37.5062C204.615 36.4414 205.14 35.5231 205.826 34.7515C206.521 33.9799 207.37 33.3857 208.373 32.9691C209.383 32.5447 210.541 32.3325 211.845 32.3325C212.701 32.3325 213.527 32.4174 214.322 32.5871C215.117 32.7569 215.834 32.9999 216.475 33.3163L215.688 34.983C215.147 34.7361 214.553 34.5239 213.905 34.3464C213.265 34.1612 212.57 34.0686 211.822 34.0686ZM223.975 36.6034C225.487 36.6034 226.61 36.9429 227.343 37.622C228.076 38.301 228.443 39.3851 228.443 40.8743V49.4972H227.042L226.672 47.6222H226.579C226.224 48.0852 225.854 48.4748 225.468 48.7912C225.082 49.0998 224.635 49.3352 224.125 49.4972C223.624 49.6515 223.006 49.7287 222.273 49.7287C221.502 49.7287 220.815 49.5937 220.213 49.3236C219.619 49.0535 219.148 48.6446 218.801 48.0967C218.462 47.5489 218.292 46.8544 218.292 46.0133C218.292 44.7479 218.793 43.7756 219.796 43.0966C220.8 42.4176 222.327 42.0472 224.38 41.9855L226.567 41.8929V41.1174C226.567 40.0217 226.332 39.2539 225.861 38.8141C225.391 38.3743 224.727 38.1544 223.871 38.1544C223.207 38.1544 222.574 38.2508 221.972 38.4437C221.371 38.6366 220.8 38.8643 220.259 39.1266L219.669 37.6682C220.24 37.375 220.896 37.1243 221.637 36.9159C222.378 36.7076 223.157 36.6034 223.975 36.6034ZM226.544 43.2471L224.611 43.3281C223.03 43.3898 221.915 43.6483 221.266 44.1036C220.618 44.5588 220.294 45.2031 220.294 46.0365C220.294 46.7618 220.514 47.2981 220.954 47.6453C221.394 47.9926 221.976 48.1662 222.702 48.1662C223.828 48.1662 224.75 47.8537 225.468 47.2287C226.186 46.6036 226.544 45.6661 226.544 44.4161V43.2471ZM238.165 36.5803C238.42 36.5803 238.686 36.5957 238.964 36.6266C239.241 36.6497 239.488 36.6844 239.704 36.7307L239.461 38.5132C239.253 38.4592 239.021 38.4167 238.767 38.3859C238.512 38.355 238.273 38.3396 238.049 38.3396C237.54 38.3396 237.058 38.4437 236.602 38.6521C236.155 38.8527 235.761 39.1459 235.422 39.5317C235.082 39.9098 234.816 40.3689 234.623 40.9091C234.43 41.4415 234.334 42.0356 234.334 42.6915V49.4972H232.401V36.8117H233.998L234.207 39.1498H234.288C234.55 38.6791 234.866 38.2508 235.237 37.865C235.607 37.4715 236.035 37.159 236.521 36.9275C237.015 36.696 237.563 36.5803 238.165 36.5803ZM246.985 36.5803C248.065 36.5803 248.991 36.8195 249.762 37.2979C250.534 37.7763 251.124 38.4476 251.533 39.3118C251.942 40.1683 252.147 41.1714 252.147 42.3211V43.5133H243.385C243.408 45.0025 243.779 46.1368 244.496 46.9161C245.214 47.6955 246.225 48.0852 247.529 48.0852C248.331 48.0852 249.041 48.0118 249.658 47.8652C250.276 47.7186 250.916 47.5026 251.58 47.2171V48.9069C250.939 49.1924 250.303 49.4008 249.67 49.5319C249.045 49.6631 248.304 49.7287 247.448 49.7287C246.228 49.7287 245.164 49.4818 244.253 48.988C243.35 48.4864 242.648 47.7534 242.147 46.7888C241.645 45.8243 241.394 44.6437 241.394 43.2471C241.394 41.8813 241.622 40.7007 242.077 39.7053C242.54 38.7022 243.188 37.9306 244.022 37.3905C244.863 36.8503 245.85 36.5803 246.985 36.5803ZM246.961 38.1544C245.935 38.1544 245.117 38.49 244.508 39.1613C243.898 39.8327 243.535 40.7702 243.42 41.9739H250.133C250.125 41.2177 250.006 40.5541 249.774 39.9831C249.55 39.4044 249.207 38.9569 248.744 38.6405C248.281 38.3164 247.687 38.1544 246.961 38.1544Z" fill="black"/>
</svg>
